<svg xmlns="http://www.w3.org/2000/svg" xmlns:xlink="http://www.w3.org/1999/xlink" width="40.59" height="40.59" viewBox="0 0 40.59 40.59">
  <defs>
    <style>
      .cls-1 {
        fill: #1a1d27;
        stroke: #ebebeb;
        stroke-width: 0.59px;
      }

      .cls-2 {
        fill-rule: evenodd;
        filter: url(#filter);
      }
    </style>
    <filter id="filter" x="1296" y="20" width="21" height="19" filterUnits="userSpaceOnUse">
      <feFlood result="flood" flood-color="#fff"/>
      <feComposite result="composite" operator="in" in2="SourceGraphic"/>
      <feBlend result="blend" in2="SourceGraphic"/>
    </filter>
  </defs>
  <circle id="Ellipse_1_copy_2" data-name="Ellipse 1 copy 2" class="cls-1" cx="20.295" cy="20.295" r="20"/>
  <path class="cls-2" d="M1316.99,31.311a0.44,0.44,0,1,0-.88.017,34.439,34.439,0,0,1-.15,3.948,14.643,14.643,0,0,1-6.7,2.779l-0.98-2.707a9.17,9.17,0,0,0,5.1-2.538,0.447,0.447,0,0,0,.07-0.555,0.429,0.429,0,0,0-.5-0.2c-0.2.061-.46,0.167-0.74,0.28a8.181,8.181,0,0,1-.88.32,20.23,20.23,0,0,1-4.83.593h0a20.379,20.379,0,0,1-4.84-.593,9,9,0,0,1-.87-0.32c-0.27-.108-0.52-0.211-0.72-0.273a0.452,0.452,0,0,0-.5.154,0.467,0.467,0,0,0,.05.6,9.181,9.181,0,0,0,5.1,2.545l-0.98,2.7a14.643,14.643,0,0,1-6.7-2.779c-0.41-3.808-.02-9.915,1.34-13.48a13.6,13.6,0,0,1,4.81-.823l-2.75,1.316a0.46,0.46,0,0,0-.23.571,0.448,0.448,0,0,0,.54.277,19.714,19.714,0,0,1,11.5,0,0.448,0.448,0,0,0,.54-0.277,0.461,0.461,0,0,0-.23-0.571l-2.75-1.315a13.6,13.6,0,0,1,4.81.823,27.528,27.528,0,0,1,1.39,7.339,0.45,0.45,0,0,0,.44.422h0a0.462,0.462,0,0,0,.45-0.491,27.723,27.723,0,0,0-1.53-7.777,0.467,0.467,0,0,0-.21-0.233c-1.75-.9-4.49-0.976-6.69-1.034-0.27-.007-0.53-0.014-0.78-0.022a0.434,0.434,0,0,0-.44.349,0.455,0.455,0,0,0,.24.517l1.34,0.641a20.071,20.071,0,0,0-4.66,0l1.34-.641a0.455,0.455,0,0,0,.24-0.517,0.434,0.434,0,0,0-.44-0.349c-0.25.008-.51,0.015-0.78,0.022-2.2.058-4.94,0.131-6.69,1.034a0.427,0.427,0,0,0-.21.233c-1.51,3.782-1.92,10.232-1.44,14.281a0.438,0.438,0,0,0,.16.3A15.161,15.161,0,0,0,1303.99,39l0.04,0a0.436,0.436,0,0,0,.41-0.295l1.3-3.565a0.463,0.463,0,0,0-.13-0.505,0.445,0.445,0,0,0-.25-0.107,9.181,9.181,0,0,1-2.79-.749,20.931,20.931,0,0,0,3.93.376h0a21.1,21.1,0,0,0,3.92-.373,9.319,9.319,0,0,1-2.78.738,0.445,0.445,0,0,0-.25.107,0.463,0.463,0,0,0-.13.505l1.3,3.574a0.436,0.436,0,0,0,.41.3l0.04,0a15.162,15.162,0,0,0,7.64-3.128,0.438,0.438,0,0,0,.16-0.3A31.389,31.389,0,0,0,1316.99,31.311Zm-14.6-6.063a2.879,2.879,0,1,0,2.79,2.877A2.837,2.837,0,0,0,1302.39,25.249Zm0,4.846a1.97,1.97,0,1,1,1.91-1.969A1.944,1.944,0,0,1,1302.39,30.095Zm8.22-4.846a2.879,2.879,0,1,0,2.79,2.877A2.837,2.837,0,0,0,1310.61,25.249Zm0,4.846a1.97,1.97,0,1,1,1.91-1.969A1.944,1.944,0,0,1,1310.61,30.095Z" transform="translate(-1285.705 -8.705)"/>
</svg>
